<?xml version="1.0" encoding="UTF-8"?>
<!-- Generator: visioncortex VTracer 0.6.0 -->
<svg version="1.1" xmlns="http://www.w3.org/2000/svg" width="256" height="256">
<path d="M0 0 C0 0.66 0 1.32 0 2 C0.6 2.27 1.2 2.54 1.81 2.81 C12.13 8.41 9.13 21.58 6.5 31 C4.12 37.73 0.09 42.13 -5 47 C-5.64 47.65 -6.28 48.3 -6.94 48.96 C-17.73 59.26 -32.07 62.22 -46.05 65.76 C-48.46 66.37 -50.85 67 -53.25 67.63 C-53.99 67.81 -54.72 67.99 -55.48 68.18 C-59.59 69.26 -61.91 70.19 -64 74 C-58.59 84.78 -52.07 96.63 -40.19 101.06 C-39.31 101.39 -38.43 101.72 -37.53 102.06 C-36.28 102.53 -36.28 102.53 -35 103 C-34.35 103.27 -33.7 103.54 -33.03 103.81 C-11.82 112.44 16.28 114.74 37.46 105.61 C40.8 104.81 43.51 105.51 46 108 C46.92 118.67 40.62 122.22 31.12 124.78 C4.97 131.12 -19.74 125.6 -44 115 C-44 114.34 -44 113.68 -44 113 C-44.87 112.92 -45.74 112.83 -46.63 112.75 C-65.91 108.48 -74.88 86.63 -76.31 69.19 C-75.33 59.14 -68.56 55.74 -59.75 53.56 C-58.14 53.14 -56.53 52.71 -54.92 52.29 C-54.11 52.07 -53.29 51.86 -52.45 51.64 C-34.55 46.95 -6.32 39.04 -6.73 16.14 C-7.14 12.86 -8.31 11.88 -11 10 C-11.5 9.63 -12 9.25 -12.52 8.87 C-26.44 -0.78 -48.01 -9.37 -61.73 3.22 C-65.03 5.81 -66.96 5.7 -71 5 C-75.22 -2.08 -74.2 -6.73 -69 -13 C-50.1 -27.71 -15.84 -13.84 0 0 Z " fill="#000000" transform="translate(141,70)"/>
</svg>
